<svg xmlns="http://www.w3.org/2000/svg" xmlns:xlink="http://www.w3.org/1999/xlink" width="35" height="22" viewBox="0 0 35 22"><defs><path id="m0x2a" d="M1162.197 583.675c.763-2.977 2.786-4.16 5.113-4.846.23-.077.191-.306.191-.306l-.343-2.365s-.038-.191-.344-.153c-8.203.916-13.66 7.135-12.706 14.69.992 5.228 5.113 7.25 8.852 6.716 3.778-.61 6.373-4.12 5.762-7.899-.496-3.357-3.281-5.723-6.525-5.837zm26.061 5.837c-.496-3.32-3.32-5.685-6.524-5.837.801-2.977 2.747-4.16 5.113-4.846.229-.077.19-.306.19-.306l-.381-2.365s-.038-.191-.343-.153c-8.166.916-13.699 7.135-12.669 14.69.954 5.228 5.037 7.25 8.815 6.716 3.777-.61 6.372-4.12 5.8-7.899z"/></defs><g><g transform="translate(-1154 -576)"><use fill="red" xlink:href="#m0x2a"/></g></g></svg>