<svg width="20" height="16" viewBox="0 0 20 16" fill="none" xmlns="http://www.w3.org/2000/svg">
<g opacity="0.5">
<path fill-rule="evenodd" clip-rule="evenodd" d="M18 0H2C0.9 0 0.01 0.9 0.01 2L0 14C0 15.1 0.9 16 2 16H18C19.1 16 20 15.1 20 14V2C20 0.9 19.1 0 18 0ZM18 4L10 9L2 4V2L10 7L18 2V4Z" fill="#67708D"/>
<mask id="mask0" mask-type="alpha" maskUnits="userSpaceOnUse" x="0" y="0" width="20" height="16">
<path fill-rule="evenodd" clip-rule="evenodd" d="M18 0H2C0.9 0 0.01 0.9 0.01 2L0 14C0 15.1 0.9 16 2 16H18C19.1 16 20 15.1 20 14V2C20 0.9 19.1 0 18 0ZM18 4L10 9L2 4V2L10 7L18 2V4Z" fill="white"/>
</mask>
<g mask="url(#mask0)">
</g>
</g>
</svg>
