<svg width="18" height="18" viewBox="0 0 18 18" fill="none" xmlns="http://www.w3.org/2000/svg">
<path id="icon" d="M16.7523 13.4479C16.6753 13.3675 16.6017 13.2882 16.5267 13.2079L16.0975 12.7593C14.3693 11.018 13.6908 10.3046 13.6195 10.2547C13.5411 10.1779 13.4637 10.1025 13.3854 10.0235C12.5357 9.20398 11.9445 9.85797 11.1743 11.0508C11.1036 11.1611 11.0376 11.2646 10.9762 11.362C10.9741 11.3653 10.9722 11.3684 10.9701 11.3718C10.9476 11.4075 10.9284 11.4382 10.907 11.4724C10.039 12.8539 10.1113 12.8846 9.80807 12.8111C9.79548 12.8087 9.78404 12.805 9.77165 12.8013C8.78599 12.4855 8.89983 12.4243 6.98686 10.4297C5.0409 8.46907 4.98102 8.58556 4.67307 7.57526C4.66944 7.56256 4.66601 7.55083 4.66353 7.53793C4.59183 7.22696 4.62177 7.30123 5.96954 6.41153V6.41172C6.00311 6.38964 6.03476 6.36853 6.06756 6.34683C6.0708 6.34468 6.07385 6.34253 6.07709 6.34058C6.17205 6.27745 6.27312 6.20982 6.38067 6.1375C7.54443 5.34806 8.18247 4.74215 7.38292 3.87121C7.30588 3.79088 7.23227 3.71153 7.15733 3.63119C7.10871 3.55809 6.41251 2.86286 4.71387 1.09127L4.27606 0.650912C4.19768 0.574099 4.12026 0.498653 4.04189 0.41969C3.09628 -0.492298 2.22141 0.161886 1.31316 1.61215C0.414457 3.04679 0.11832 3.91871 0.116032 3.92574C-0.290512 5.24252 0.476621 6.85267 0.799453 7.40658C1.91554 9.33337 2.3505 10.1414 4.82886 12.6412C7.26793 15.1815 8.05604 15.6274 9.93583 16.7714C10.4762 17.1023 12.0469 17.8886 13.3316 17.4721C13.3384 17.4695 14.1891 17.1662 15.5887 16.245C17.0036 15.3139 17.6421 14.4171 16.7523 13.4479Z" fill="#0CA8E7"/>
</svg>
