<svg width="16" height="14" viewBox="0 0 16 14" fill="none" xmlns="http://www.w3.org/2000/svg">
<path id="Combined Shape" opacity="0.6" fill-rule="evenodd" clip-rule="evenodd" d="M12.0526 0H3.94698C3.38719 0 2.93378 0.4475 2.93378 1H13.0658C13.0658 0.4475 12.6124 0 12.0526 0ZM14.079 3C14.079 2.448 13.6256 2 13.0658 2H2.93378C2.37399 2 1.92058 2.448 1.92058 3V4H14.079V3ZM0.907376 5H15.0922C15.6495 5 16.0548 5.4475 15.994 5.994L15.2042 13.0065C15.1429 13.5525 14.6363 14 14.079 14H1.92058C1.36332 14 0.856716 13.5525 0.795924 13.006L0.0061323 5.9935C-0.0551665 5.4475 0.350115 5 0.907376 5Z" fill="#0CA8E7"/>
</svg>
