<svg width="16" height="13" viewBox="0 0 16 13" fill="none" xmlns="http://www.w3.org/2000/svg">
<path id="Path" fill-rule="evenodd" clip-rule="evenodd" d="M8.58951 0.555176C8.4064 0.738282 8.31485 0.967162 8.31485 1.24182C8.31485 1.51648 8.4064 1.74536 8.58951 1.92847L12.1295 5.46851H1.14322C0.858387 5.46851 0.624421 5.56006 0.441315 5.74316C0.258208 5.92627 0.166656 6.16024 0.166656 6.44507C0.166656 6.70956 0.258208 6.93843 0.441315 7.13171C0.624421 7.32499 0.858387 7.42163 1.14322 7.42163H12.1906L8.58951 10.9922C8.4064 11.1956 8.31485 11.4296 8.31485 11.6941C8.31485 11.9586 8.4064 12.1925 8.58951 12.396C8.69123 12.4774 8.80313 12.5435 8.9252 12.5944C9.04727 12.6452 9.16934 12.6707 9.29141 12.6707C9.41348 12.6707 9.53555 12.6452 9.65762 12.5944C9.77969 12.5435 9.89159 12.4774 9.99332 12.396L15.7611 6.47559L9.99332 0.555176C9.78987 0.351724 9.5559 0.25 9.29141 0.25C9.02693 0.25 8.79296 0.351724 8.58951 0.555176Z" fill="#0CA8E7"/>
</svg>
