<svg width="15" height="12" viewBox="0 0 15 12" fill="none" xmlns="http://www.w3.org/2000/svg">
<path id="Path" fill-rule="evenodd" clip-rule="evenodd" d="M8.08594 0.292969C7.91016 0.468751 7.82227 0.688475 7.82227 0.952148C7.82227 1.21582 7.91016 1.43555 8.08594 1.61133L11.4844 5.00977H0.9375C0.664061 5.00977 0.439454 5.09766 0.263672 5.27344C0.0878897 5.44922 0 5.67383 0 5.94727C0 6.20117 0.0878897 6.4209 0.263672 6.60645C0.439454 6.79199 0.664061 6.88477 0.9375 6.88477H11.543L8.08594 10.3125C7.91016 10.5078 7.82227 10.7324 7.82227 10.9863C7.82227 11.2402 7.91016 11.4648 8.08594 11.6602C8.18359 11.7383 8.29101 11.8018 8.4082 11.8506C8.52539 11.8994 8.64258 11.9238 8.75977 11.9238C8.87695 11.9238 8.99414 11.8994 9.11133 11.8506C9.22852 11.8018 9.33594 11.7383 9.43359 11.6602L14.9707 5.97656L9.43359 0.292969C9.23828 0.0976553 9.01367 0 8.75977 0C8.50586 0 8.28125 0.0976553 8.08594 0.292969Z" fill="#E91716"/>
</svg>
